<svg id="visual" viewBox="0 0 900 600" width="900" height="600" xmlns="http://www.w3.org/2000/svg" xmlns:xlink="http://www.w3.org/1999/xlink" version="1.1"><rect x="0" y="0" width="900" height="600" fill="#FFE3EF"></rect><path d="M0 414L50 426.7C100 439.3 200 464.7 300 453.5C400 442.3 500 394.7 600 395.2C700 395.7 800 444.3 850 468.7L900 493L900 0L850 0C800 0 700 0 600 0C500 0 400 0 300 0C200 0 100 0 50 0L0 0Z" fill="#ffafd0"></path><path d="M0 251L50 245.3C100 239.7 200 228.3 300 211.3C400 194.3 500 171.7 600 154.8C700 138 800 127 850 121.5L900 116L900 0L850 0C800 0 700 0 600 0C500 0 400 0 300 0C200 0 100 0 50 0L0 0Z" fill="#ffddeb"></path></svg>